<svg width="38" height="34" viewBox="0 0 38 34" fill="none" xmlns="http://www.w3.org/2000/svg">
<path fill-rule="evenodd" clip-rule="evenodd" d="M19 4.35715C22.6861 -1.13653 30.8007 -1.59491 34.9951 3.89499L35.5719 4.64995C39.229 9.43668 38.701 16.2628 34.3526 20.4109L21.3892 32.7774C21.3769 32.7891 21.3645 32.801 21.3519 32.8131C21.1625 32.9939 20.9343 33.2118 20.7151 33.3833C20.4563 33.5857 20.0676 33.8414 19.5386 33.9468C19.1829 34.0177 18.8171 34.0177 18.4614 33.9468C17.9324 33.8414 17.5438 33.5857 17.2849 33.3833C17.0657 33.2118 16.8375 32.9939 16.6482 32.8131C16.6355 32.801 16.6231 32.7891 16.6108 32.7774L3.64736 20.4109C-0.700972 16.2628 -1.22902 9.43669 2.42815 4.64996L3.00495 3.895C7.19935 -1.5949 15.3139 -1.13653 19 4.35715Z" fill="white"/>
</svg>
