<svg width="34" height="29" viewBox="0 0 34 29" fill="none" xmlns="http://www.w3.org/2000/svg">
<path fill-rule="evenodd" clip-rule="evenodd" d="M17.4242 2.48571C15.41 2.48571 13.7772 4.15505 13.7772 6.21429C13.7772 8.27352 15.41 9.94286 17.4242 9.94286C19.4383 9.94286 21.0711 8.27352 21.0711 6.21429C21.0711 4.15505 19.4383 2.48571 17.4242 2.48571ZM11.346 6.21429C11.346 2.78223 14.0673 0 17.4242 0C20.781 0 23.5023 2.78223 23.5023 6.21429C23.5023 9.64634 20.781 12.4286 17.4242 12.4286C14.0673 12.4286 11.346 9.64634 11.346 6.21429Z" fill="white"/>
<path fill-rule="evenodd" clip-rule="evenodd" d="M11.6329 17.9052C9.94515 19.2571 8.91468 21.0028 8.91468 22.7857C8.91468 23.6663 9.15929 24.2569 9.51801 24.6912C9.89517 25.1479 10.4767 25.5248 11.2853 25.8146C12.9379 26.4069 15.1747 26.5143 17.4242 26.5143C19.6736 26.5143 21.9104 26.4069 23.563 25.8146C24.3716 25.5248 24.9531 25.1479 25.3303 24.6912C25.689 24.2569 25.9336 23.6663 25.9336 22.7857C25.9336 21.0028 24.9032 19.2571 23.2154 17.9052C21.5323 16.5569 19.3598 15.7429 17.4242 15.7429C15.4885 15.7429 13.316 16.5569 11.6329 17.9052ZM10.1334 15.9485C12.1939 14.2979 14.8839 13.2571 17.4242 13.2571C19.9644 13.2571 22.6544 14.2979 24.7149 15.9485C26.7707 17.5954 28.3649 19.9925 28.3649 22.7857C28.3649 24.1932 27.9533 25.3681 27.188 26.2948C26.441 27.1993 25.4305 27.7793 24.3673 28.1603C22.2763 28.9097 19.6506 29 17.4242 29C15.1977 29 12.572 28.9097 10.481 28.1603C9.41779 27.7793 8.40728 27.1993 7.66034 26.2948C6.89495 25.3681 6.48341 24.1932 6.48341 22.7857C6.48341 19.9925 8.07757 17.5954 10.1334 15.9485Z" fill="white"/>
<path fill-rule="evenodd" clip-rule="evenodd" d="M24.9669 2.9C24.9669 2.21359 25.5111 1.65714 26.1825 1.65714C29.2536 1.65714 31.7432 4.20249 31.7432 7.34232C31.7432 10.4822 29.2536 13.0275 26.1825 13.0275C25.5111 13.0275 24.9669 12.4711 24.9669 11.7846C24.9669 11.0982 25.5111 10.5418 26.1825 10.5418C27.9108 10.5418 29.3119 9.10934 29.3119 7.34232C29.3119 5.57531 27.9108 4.14286 26.1825 4.14286C25.5111 4.14286 24.9669 3.58641 24.9669 2.9Z" fill="white"/>
<path fill-rule="evenodd" clip-rule="evenodd" d="M25.1087 11.202C25.4235 10.5957 26.1594 10.365 26.7524 10.6868C30.606 12.7778 33.9157 16.5663 33.9157 21.1286C33.9157 21.815 33.3715 22.3714 32.7001 22.3714C32.0287 22.3714 31.4844 21.815 31.4844 21.1286C31.4844 17.8484 29.043 14.7438 25.6126 12.8825C25.0196 12.5607 24.794 11.8083 25.1087 11.202Z" fill="white"/>
<path fill-rule="evenodd" clip-rule="evenodd" d="M8.94881 2.9C8.94881 2.21359 8.40455 1.65714 7.73317 1.65714C4.6621 1.65714 2.1725 4.20249 2.1725 7.34232C2.1725 10.4822 4.6621 13.0275 7.73317 13.0275C8.40455 13.0275 8.94881 12.4711 8.94881 11.7846C8.94881 11.0982 8.40455 10.5418 7.73317 10.5418C6.00486 10.5418 4.60378 9.10934 4.60378 7.34232C4.60378 5.57531 6.00486 4.14286 7.73317 4.14286C8.40455 4.14286 8.94881 3.58641 8.94881 2.9Z" fill="white"/>
<path fill-rule="evenodd" clip-rule="evenodd" d="M8.80698 11.202C8.49224 10.5957 7.75634 10.365 7.16331 10.6868C3.30971 12.7778 0 16.5663 0 21.1286C0 21.815 0.54426 22.3714 1.21564 22.3714C1.88702 22.3714 2.43128 21.815 2.43128 21.1286C2.43128 17.8484 4.87275 14.7438 8.30308 12.8825C8.89612 12.5607 9.12172 11.8083 8.80698 11.202Z" fill="white"/>
</svg>
