<svg width="166" height="64" viewBox="0 0 166 64" fill="none" xmlns="http://www.w3.org/2000/svg">
<path d="M29.4942 48.2432H0V0.842959H29.4942V8.49443H8.31553V20.6849H27.2853V28.0122H8.31553V40.5917H29.4942V48.2432Z" fill="black"/>
<path d="M50.5281 49.0861C41.2381 49.0861 35.4562 42.2776 35.4562 32.3566C35.4562 22.3708 41.3031 15.2381 50.9829 15.2381C55.4655 15.2381 59.4283 17.1185 61.4423 20.2958V0H69.303V48.2432H62.0269L61.5072 43.2503C59.5583 46.9463 55.4005 49.0861 50.5281 49.0861ZM52.2822 41.8237C57.8042 41.8237 61.3773 37.8683 61.3773 32.0973C61.3773 26.3262 57.8042 22.306 52.2822 22.306C46.7601 22.306 43.382 26.3911 43.382 32.0973C43.382 37.8034 46.7601 41.8237 52.2822 41.8237Z" fill="black"/>
<path d="M81.5256 9.79128C78.7971 9.79128 76.6532 7.65147 76.6532 4.99291C76.6532 2.33435 78.7971 0.259372 81.5256 0.259372C84.1242 0.259372 86.2681 2.33435 86.2681 4.99291C86.2681 7.65147 84.1242 9.79128 81.5256 9.79128ZM77.5627 48.2432V16.2107H85.4885V48.2432H77.5627Z" fill="black"/>
<path d="M91.8581 31.5137C91.8581 22.1763 97.9648 15.1733 107.125 15.1733C111.932 15.1733 115.7 17.1834 117.584 20.6201L118.039 16.2107H125.38V46.6221C125.38 57.3212 118.949 64 108.554 64C99.3291 64 93.0275 58.7477 92.053 50.1885H99.9787C100.498 54.3384 103.682 56.8024 108.554 56.8024C114.011 56.8024 117.519 53.3658 117.519 48.0486V42.7315C115.505 45.7143 111.543 47.5947 106.93 47.5947C97.8349 47.5947 91.8581 40.7862 91.8581 31.5137ZM99.8488 31.3191C99.8488 36.7011 103.292 40.7214 108.489 40.7214C113.946 40.7214 117.324 36.8956 117.324 31.3191C117.324 25.8723 114.011 22.1114 108.489 22.1114C103.227 22.1114 99.8488 26.0669 99.8488 31.3191Z" fill="black"/>
<path d="M131.698 32.1621C131.698 22.1763 138.91 15.3029 148.849 15.3029C158.789 15.3029 166 22.1763 166 32.1621C166 42.1479 158.789 49.0213 148.849 49.0213C138.91 49.0213 131.698 42.1479 131.698 32.1621ZM139.624 32.1621C139.624 37.998 143.392 41.9534 148.849 41.9534C154.306 41.9534 158.074 37.998 158.074 32.1621C158.074 26.3262 154.306 22.3708 148.849 22.3708C143.392 22.3708 139.624 26.3262 139.624 32.1621Z" fill="black"/>
</svg>
