<svg width="27" height="28" viewBox="0 0 27 28" fill="none" xmlns="http://www.w3.org/2000/svg">
<g clip-path="url(#clip0_196_51)">
<path d="M13.5 2.5975C17.107 2.5975 17.5342 2.6138 18.9527 2.67899C20.2711 2.73876 20.983 2.96696 21.4576 3.15712C22.0852 3.40705 22.5387 3.71131 23.008 4.19487C23.4826 4.68386 23.7727 5.14569 24.0152 5.79224C24.1998 6.28123 24.4213 7.02015 24.4793 8.37303C24.5426 9.84 24.5584 10.2801 24.5584 13.991C24.5584 17.7073 24.5426 18.1474 24.4793 19.609C24.4213 20.9673 24.1998 21.7008 24.0152 22.1898C23.7727 22.8363 23.4773 23.3036 23.008 23.7871C22.5334 24.2761 22.0852 24.5749 21.4576 24.8249C20.983 25.015 20.2658 25.2432 18.9527 25.303C17.5289 25.3682 17.1018 25.3845 13.5 25.3845C9.89297 25.3845 9.46582 25.3682 8.04727 25.303C6.72891 25.2432 6.01699 25.015 5.54238 24.8249C4.91484 24.5749 4.46133 24.2707 3.99199 23.7871C3.51738 23.2981 3.22734 22.8363 2.98477 22.1898C2.8002 21.7008 2.57871 20.9618 2.5207 19.609C2.45742 18.142 2.4416 17.7019 2.4416 13.991C2.4416 10.2747 2.45742 9.83457 2.5207 8.37303C2.57871 7.01472 2.8002 6.28123 2.98477 5.79224C3.22734 5.14569 3.52266 4.67843 3.99199 4.19487C4.4666 3.70588 4.91484 3.40705 5.54238 3.15712C6.01699 2.96696 6.73418 2.73876 8.04727 2.67899C9.46582 2.6138 9.89297 2.5975 13.5 2.5975ZM13.5 0.0927734C9.83496 0.0927734 9.37617 0.109073 7.93652 0.174272C6.50215 0.239471 5.51602 0.478533 4.66172 0.820827C3.77051 1.17942 3.01641 1.65211 2.26758 2.42907C1.51348 3.20059 1.05469 3.97754 0.706641 4.89032C0.374414 5.77594 0.142383 6.78652 0.0791016 8.26436C0.0158203 9.75307 0 10.2258 0 14.0019C0 17.778 0.0158203 18.2507 0.0791016 19.7339C0.142383 21.2118 0.374414 22.2278 0.706641 23.108C1.05469 24.0262 1.51348 24.8031 2.26758 25.5747C3.01641 26.3462 3.77051 26.8243 4.65645 27.1775C5.51602 27.5198 6.49688 27.7588 7.93125 27.824C9.3709 27.8892 9.82969 27.9055 13.4947 27.9055C17.1598 27.9055 17.6186 27.8892 19.0582 27.824C20.4926 27.7588 21.4787 27.5198 22.333 27.1775C23.2189 26.8243 23.973 26.3462 24.7219 25.5747C25.4707 24.8031 25.9348 24.0262 26.2775 23.1134C26.6098 22.2278 26.8418 21.2172 26.9051 19.7394C26.9684 18.2561 26.9842 17.7834 26.9842 14.0073C26.9842 10.2312 26.9684 9.7585 26.9051 8.27523C26.8418 6.79739 26.6098 5.78137 26.2775 4.90119C25.9453 3.97754 25.4865 3.20059 24.7324 2.42907C23.9836 1.65755 23.2295 1.17942 22.3436 0.826261C21.484 0.483967 20.5031 0.244904 19.0688 0.179705C17.6238 0.109073 17.165 0.0927734 13.5 0.0927734Z" fill="white"/>
<path d="M13.5 6.85742C9.67148 6.85742 6.56543 10.0576 6.56543 14.0021C6.56543 17.9467 9.67148 21.1468 13.5 21.1468C17.3285 21.1468 20.4346 17.9467 20.4346 14.0021C20.4346 10.0576 17.3285 6.85742 13.5 6.85742ZM13.5 18.6367C11.0162 18.6367 9.00176 16.5612 9.00176 14.0021C9.00176 11.4431 11.0162 9.36758 13.5 9.36758C15.9838 9.36758 17.9982 11.4431 17.9982 14.0021C17.9982 16.5612 15.9838 18.6367 13.5 18.6367Z" fill="white"/>
<path d="M22.3277 6.57426C22.3277 7.49791 21.6 8.24226 20.7088 8.24226C19.8123 8.24226 19.0898 7.49247 19.0898 6.57426C19.0898 5.6506 19.8176 4.90625 20.7088 4.90625C21.6 4.90625 22.3277 5.65604 22.3277 6.57426Z" fill="white"/>
</g>
<defs>
<clipPath id="clip0_196_51">
<rect width="27" height="27.8182" fill="white" transform="translate(0 0.0927734)"/>
</clipPath>
</defs>
</svg>
