<svg width="56" height="53" viewBox="0 0 56 53" fill="none" xmlns="http://www.w3.org/2000/svg">
<path fill-rule="evenodd" clip-rule="evenodd" d="M26.3636 5.63636C15.0669 5.63636 5.90909 14.2854 5.90909 24.9545C5.90909 35.6237 15.0669 44.2727 26.3636 44.2727C37.6604 44.2727 46.8182 35.6237 46.8182 24.9545C46.8182 14.2854 37.6604 5.63636 26.3636 5.63636ZM1 24.9545C1 11.7248 12.3557 1 26.3636 1C40.3716 1 51.7273 11.7248 51.7273 24.9545C51.7273 38.1843 40.3716 48.9091 26.3636 48.9091C12.3557 48.9091 1 38.1843 1 24.9545Z" fill="black"/>
<path fill-rule="evenodd" clip-rule="evenodd" d="M40.9916 38.7699C41.9502 37.8646 43.5043 37.8646 44.4629 38.7699L54.2811 48.0426C55.2396 48.9479 55.2396 50.4157 54.2811 51.321C53.3225 52.2263 51.7684 52.2263 50.8098 51.321L40.9916 42.0483C40.0331 41.143 40.0331 39.6752 40.9916 38.7699Z" fill="black"/>
<path fill-rule="evenodd" clip-rule="evenodd" d="M26.3636 5.63636C15.0669 5.63636 5.90909 14.2854 5.90909 24.9545C5.90909 35.6237 15.0669 44.2727 26.3636 44.2727C37.6604 44.2727 46.8182 35.6237 46.8182 24.9545C46.8182 14.2854 37.6604 5.63636 26.3636 5.63636ZM1 24.9545C1 11.7248 12.3557 1 26.3636 1C40.3716 1 51.7273 11.7248 51.7273 24.9545C51.7273 38.1843 40.3716 48.9091 26.3636 48.9091C12.3557 48.9091 1 38.1843 1 24.9545Z" stroke="black" stroke-linecap="round"/>
<path fill-rule="evenodd" clip-rule="evenodd" d="M40.9916 38.7699C41.9502 37.8646 43.5043 37.8646 44.4629 38.7699L54.2811 48.0426C55.2396 48.9479 55.2396 50.4157 54.2811 51.321C53.3225 52.2263 51.7684 52.2263 50.8098 51.321L40.9916 42.0483C40.0331 41.143 40.0331 39.6752 40.9916 38.7699Z" stroke="black" stroke-linecap="round"/>
</svg>
