<svg width="39" height="51" viewBox="0 0 39 51" fill="none" xmlns="http://www.w3.org/2000/svg">
<path fill-rule="evenodd" clip-rule="evenodd" d="M19.5 4.37143C15.9101 4.37143 13 7.30716 13 10.9286C13 14.55 15.9101 17.4857 19.5 17.4857C23.0898 17.4857 26 14.55 26 10.9286C26 7.30716 23.0898 4.37143 19.5 4.37143ZM8.66667 10.9286C8.66667 4.89289 13.5169 0 19.5 0C25.4831 0 30.3333 4.89289 30.3333 10.9286C30.3333 16.9643 25.4831 21.8571 19.5 21.8571C13.5169 21.8571 8.66667 16.9643 8.66667 10.9286ZM9.17809 31.4884C6.16996 33.866 4.33333 36.936 4.33333 40.0714C4.33333 41.62 4.76931 42.6586 5.40865 43.4225C6.08089 44.2257 7.1174 44.8884 8.55855 45.398C11.5041 46.4397 15.4908 46.6286 19.5 46.6286C23.5092 46.6286 27.4959 46.4397 30.4414 45.398C31.8826 44.8884 32.9191 44.2257 33.5913 43.4225C34.2307 42.6586 34.6667 41.62 34.6667 40.0714C34.6667 36.936 32.83 33.866 29.8219 31.4884C26.822 29.1173 22.95 27.6857 19.5 27.6857C16.05 27.6857 12.178 29.1173 9.17809 31.4884ZM6.5055 28.0474C10.1779 25.1447 14.9725 23.3143 19.5 23.3143C24.0275 23.3143 28.8221 25.1447 32.4945 28.0474C36.1587 30.9435 39 35.1593 39 40.0714C39 42.5466 38.2665 44.6128 36.9023 46.2427C35.571 47.8332 33.77 48.8532 31.875 49.5234C28.1482 50.8413 23.4683 51 19.5 51C15.5317 51 10.8518 50.8413 7.12503 49.5234C5.23003 48.8532 3.42898 47.8332 2.09769 46.2427C0.733514 44.6128 0 42.5466 0 40.0714C0 35.1593 2.84132 30.9435 6.5055 28.0474Z" fill="black"/>
</svg>
